<svg width="781" height="240" viewBox="0 0 781 240" fill="none" xmlns="http://www.w3.org/2000/svg">
<path d="M1 154.521C2.84016 229.205 59.885 239 93.6213 239H133.491C134.169 239 134.718 238.452 134.718 237.776V194.312C134.718 193.636 134.169 193.087 133.491 193.087H93.6213C57.7995 193.087 47.6173 167.989 47.6173 154.521V2.61153C47.6173 1.9404 47.076 1.47328 46.4035 1.46618L2.23974 1.00007C1.55718 0.992877 1 1.5431 1 2.22433V154.521Z" fill="#191A26"/>
<path d="M153.733 185.741C153.733 237.717 182.358 238.969 199.13 238.999C199.808 239 200.35 238.449 200.35 237.773V100.606C200.35 99.9303 199.801 99.4258 199.124 99.4258H154.96C154.282 99.4258 153.733 99.9739 153.733 100.65L153.733 185.741Z" fill="#191A26"/>
<path d="M153.12 54.1254C153.12 53.4492 153.669 52.9011 154.346 52.9011H199.737C200.415 52.9011 200.964 53.4492 200.964 54.1254V88.4068C200.964 89.083 200.415 89.6311 199.737 89.6311H154.346C153.669 89.6311 153.12 89.083 153.12 88.4068V54.1254Z" fill="#191A26"/>
<path d="M219.979 145.951V239L266.596 239C267.274 239 267.823 238.452 267.823 237.775V138.604C267.823 128.646 273.439 111.961 297.572 110.542C321.705 111.961 327.321 128.646 327.321 138.604V237.775C327.321 238.452 327.87 239 328.548 239H373.325C374.003 239 374.552 238.452 374.552 237.775V138.604C374.552 128.237 380.639 110.58 407.368 110.446C434.097 110.58 440.184 128.237 440.184 138.604V237.775C440.184 238.452 440.733 239 441.411 239L486.188 239C486.866 239 487.415 238.452 487.415 237.776V145.951C487.415 119.015 472.203 65.1442 411.355 65.1444C377.211 65.1445 362.371 77.4051 353.697 85.3914C345.022 77.4051 330.183 65.1445 296.039 65.1444C235.191 65.1442 219.979 102.487 219.979 145.951Z" fill="#191A26"/>
<path d="M588.624 239C571.858 239 557.239 235.531 544.766 228.593C532.499 221.451 522.889 211.452 515.937 198.597C509.19 185.741 505.817 170.641 505.817 153.296C505.817 135.952 509.19 120.954 515.937 108.302C522.889 95.4466 532.499 85.4479 544.766 78.306C557.034 71.164 571.551 67.593 588.317 67.593C604.674 67.593 618.884 71.164 630.947 78.306C643.01 85.4479 652.313 95.6507 658.856 108.914C665.604 122.178 668.977 137.992 668.977 156.357V164.315C668.977 164.992 668.428 165.54 667.75 165.54H554.64C553.939 165.54 553.38 166.124 553.424 166.821C554.2 179.235 557.652 188.501 563.781 194.618C570.324 200.944 578.912 204.106 589.544 204.106C597.313 204.106 603.754 202.474 608.865 199.209C613.945 196.089 617.625 191.386 619.904 185.099C620.093 184.578 620.598 184.234 621.152 184.267L665.03 186.877C665.803 186.923 666.341 187.663 666.13 188.406C661.687 204.042 652.72 216.316 639.228 225.226C625.325 234.409 608.456 239 588.624 239ZM553.512 136.025C553.421 136.747 553.99 137.38 554.719 137.38H620.456C621.158 137.38 621.718 136.792 621.67 136.093C620.887 124.699 617.539 116.15 611.626 110.445C605.696 104.527 597.927 101.568 588.317 101.568C578.707 101.568 570.733 104.731 564.395 111.057C558.506 116.934 554.878 125.257 553.512 136.025Z" fill="#191A26"/>
<path d="M780 69.4296V112.893C780 113.57 779.433 114.117 778.756 114.128C743.942 114.702 733.996 139.374 733.996 152.684V237.82C733.996 238.496 733.447 239 732.769 239H688.605C687.928 239 687.379 238.452 687.379 237.776V152.684C689.197 78.8867 744.917 68.4469 778.789 68.2095C779.466 68.2047 780 68.7534 780 69.4296Z" fill="#191A26"/>
<path d="M219.979 239V145.951C219.979 102.487 235.191 65.1442 296.039 65.1444C330.183 65.1445 345.022 77.4051 353.697 85.3914M219.979 239L219.365 239M219.979 239L266.596 239C267.274 239 267.823 238.452 267.823 237.775V138.604C267.823 128.646 273.439 111.961 297.572 110.542M353.697 85.3914C353.905 85.5828 354.109 85.7718 354.31 85.9581M353.697 85.3914C362.371 77.4051 377.211 65.1445 411.355 65.1444C472.203 65.1442 487.415 119.015 487.415 145.951V237.776C487.415 238.452 486.866 239 486.188 239L441.411 239C440.733 239 440.184 238.452 440.184 237.775V138.604C440.184 128.237 434.097 110.58 407.368 110.446M353.697 85.3914C353.489 85.5828 353.285 85.7718 353.083 85.9581M407.368 110.446C407.266 110.445 407.164 110.445 407.061 110.445M407.368 110.446C380.639 110.58 374.552 128.237 374.552 138.604V237.775C374.552 238.452 374.003 239 373.325 239H328.548C327.87 239 327.321 238.452 327.321 237.775V138.604C327.321 128.646 321.705 111.961 297.572 110.542M407.368 110.446C407.47 110.445 407.572 110.445 407.675 110.445M297.572 110.542C296.485 110.478 295.361 110.445 294.198 110.445M297.572 110.542C298.659 110.478 299.783 110.445 300.946 110.445M93.6213 239C59.885 239 2.84016 229.205 1 154.521V2.22433C1 1.5431 1.55718 0.992877 2.23974 1.00007L46.4035 1.46618C47.076 1.47328 47.6173 1.9404 47.6173 2.61153V154.521C47.6173 167.989 57.7995 193.087 93.6213 193.087H133.491C134.169 193.087 134.718 193.636 134.718 194.312V237.776C134.718 238.452 134.169 239 133.491 239H93.6213ZM199.13 238.999C182.358 238.969 153.733 237.717 153.733 185.741L153.733 100.65C153.733 99.9739 154.282 99.4258 154.96 99.4258H199.124C199.801 99.4258 200.35 99.9303 200.35 100.606V237.773C200.35 238.449 199.808 239 199.13 238.999ZM154.346 89.6311H199.737C200.415 89.6311 200.964 89.083 200.964 88.4068V54.1254C200.964 53.4492 200.415 52.9011 199.737 52.9011H154.346C153.669 52.9011 153.12 53.4492 153.12 54.1254V88.4068C153.12 89.083 153.669 89.6311 154.346 89.6311ZM588.624 239C571.858 239 557.239 235.531 544.767 228.593C532.499 221.451 522.889 211.452 515.937 198.597C509.19 185.741 505.817 170.641 505.817 153.296C505.817 135.952 509.19 120.954 515.937 108.302C522.889 95.4466 532.499 85.4479 544.767 78.306C557.034 71.164 571.551 67.593 588.317 67.593C604.674 67.593 618.884 71.164 630.947 78.306C643.01 85.4479 652.314 95.6507 658.856 108.914C665.604 122.178 668.977 137.992 668.977 156.357V164.315C668.977 164.992 668.428 165.54 667.75 165.54H554.64C553.939 165.54 553.38 166.124 553.424 166.821C554.2 179.235 557.652 188.501 563.781 194.618C570.324 200.944 578.912 204.106 589.544 204.106C597.313 204.106 603.754 202.474 608.865 199.209C613.945 196.089 617.625 191.386 619.904 185.099C620.093 184.578 620.598 184.234 621.152 184.267L665.03 186.877C665.803 186.923 666.341 187.663 666.13 188.406C661.687 204.042 652.72 216.316 639.228 225.226C625.325 234.409 608.456 239 588.624 239ZM611.626 110.445C617.539 116.15 620.887 124.699 621.67 136.093C621.718 136.792 621.158 137.38 620.456 137.38H554.719C553.99 137.38 553.421 136.747 553.512 136.025C554.878 125.257 558.506 116.934 564.395 111.057C570.733 104.731 578.707 101.568 588.317 101.568C597.927 101.568 605.696 104.527 611.626 110.445ZM780 112.893V69.4296C780 68.7534 779.466 68.2047 778.789 68.2095C744.917 68.4469 689.197 78.8867 687.379 152.684V237.776C687.379 238.452 687.928 239 688.605 239H732.769C733.447 239 733.996 238.496 733.996 237.82V152.684C733.996 139.374 743.942 114.702 778.756 114.128C779.433 114.117 780 113.57 780 112.893Z" stroke="#191A26"/>
</svg>
